<svg width="16" height="12" viewBox="0 0 16 12" fill="none" xmlns="http://www.w3.org/2000/svg">
<g clip-path="url(#clip0_3_1454)">
<path d="M14.0775 4.2925L12.1333 1.95917C11.8392 1.60667 11.6917 1.43 11.5117 1.30333C11.3519 1.19117 11.1736 1.10796 10.985 1.0575C10.7725 1 10.5433 1 10.085 1H4.00001C3.06668 1 2.60001 1 2.24334 1.18167C1.92975 1.34145 1.6748 1.59641 1.51501 1.91C1.33334 2.26667 1.33334 2.73333 1.33334 3.66667V8.33333C1.33334 9.26667 1.33334 9.73333 1.51501 10.09C1.6748 10.4036 1.92975 10.6585 2.24334 10.8183C2.59918 11 3.06584 11 3.99751 11H10.0833C10.5425 11 10.7717 11 10.9842 10.9425C11.1725 10.8925 11.3508 10.8092 11.5108 10.6958C11.6908 10.5692 11.8383 10.3933 12.1325 10.0408L14.0767 7.7075C14.5833 7.1 14.835 6.79667 14.9325 6.4575C15.0175 6.15833 15.0175 5.84083 14.9325 5.5425C14.8358 5.20333 14.5833 4.90083 14.0775 4.2925Z" stroke="black" stroke-width="2" stroke-linecap="round" stroke-linejoin="round"/>
</g>
<defs>
<clipPath id="clip0_3_1454">
<rect width="16" height="12" fill="white"/>
</clipPath>
</defs>
</svg>
