<svg width="25" height="25" viewBox="0 0 25 25" fill="none" xmlns="http://www.w3.org/2000/svg">
<path fill-rule="evenodd" clip-rule="evenodd" d="M12.977 22.272C8.26302 22.272 5.90602 22.272 4.44102 20.807C2.97702 19.344 2.97702 16.986 2.97702 12.272C2.97702 7.55797 2.97702 5.20097 4.44102 3.73597C5.90702 2.27197 8.26302 2.27197 12.977 2.27197C17.691 2.27197 20.048 2.27197 21.512 3.73597C22.977 5.20197 22.977 7.55797 22.977 12.272C22.977 16.986 22.977 19.343 21.512 20.807C20.049 22.272 17.691 22.272 12.977 22.272ZM15.451 8.69097C15.6051 8.81671 15.7029 8.99848 15.7229 9.19632C15.743 9.39416 15.6837 9.59186 15.558 9.74597L9.84402 16.746C9.77368 16.8321 9.68506 16.9016 9.58457 16.9493C9.48409 16.997 9.37425 17.0217 9.26302 17.0217C9.15179 17.0217 9.04195 16.997 8.94147 16.9493C8.84098 16.9016 8.75236 16.8321 8.68202 16.746L6.39602 13.946C6.27537 13.7914 6.22007 13.5957 6.24196 13.4008C6.26386 13.2059 6.36121 13.0274 6.51316 12.9034C6.66511 12.7794 6.85957 12.7199 7.05488 12.7376C7.25018 12.7553 7.4308 12.8487 7.55802 12.998L9.26302 15.086L14.396 8.79797C14.5218 8.64392 14.7035 8.54611 14.9014 8.52605C15.0992 8.50598 15.2969 8.5653 15.451 8.69097ZM19.451 8.69097C19.6051 8.81671 19.7029 8.99848 19.7229 9.19632C19.743 9.39416 19.6837 9.59186 19.558 9.74597L13.844 16.746C13.7695 16.8376 13.6743 16.9102 13.5664 16.9581C13.4584 17.006 13.3407 17.0277 13.2228 17.0214C13.1048 17.0152 12.99 16.9812 12.8877 16.9222C12.7854 16.8632 12.6985 16.7809 12.634 16.682L12.349 16.244C12.2633 16.1125 12.2211 15.9575 12.2281 15.8007C12.2352 15.6439 12.2913 15.4933 12.3884 15.3701C12.4856 15.2469 12.619 15.1572 12.7698 15.1138C12.9206 15.0704 13.0812 15.0753 13.229 15.128L18.396 8.79797C18.5218 8.64392 18.7035 8.54611 18.9014 8.52605C19.0992 8.50598 19.2969 8.5653 19.451 8.69097Z" fill="#39AA57"/>
</svg>
