<svg width="32" height="32" viewBox="0 0 32 32" fill="none" xmlns="http://www.w3.org/2000/svg">
<path d="M15.9766 25.811L22.3169 19.4726L20.9599 18.1156L16.9349 22.1406V13.1322H15.0182V22.1406L10.9932 18.1156L9.63622 19.4726L15.9766 25.811ZM2.55989 7.82497V28.0976C2.55989 28.4413 2.67041 28.7237 2.89147 28.9447C3.11252 29.1658 3.39555 29.2763 3.74055 29.2763H28.2145C28.5582 29.2763 28.8406 29.1658 29.0616 28.9447C29.2827 28.7237 29.3932 28.4413 29.3932 28.0976V7.82497H2.55989ZM4.03572 31.193C3.17705 31.193 2.39697 30.8422 1.69547 30.1407C0.993969 29.4392 0.643219 28.6598 0.643219 27.8024V7.20781C0.643219 6.83469 0.702636 6.48331 0.821469 6.15364C0.940302 5.82397 1.11919 5.5205 1.35814 5.24322L4.3443 1.65906C4.62158 1.28467 4.9685 1.00228 5.38505 0.81189C5.80161 0.621501 6.24819 0.526306 6.7248 0.526306H25.1555C25.6308 0.526306 26.0831 0.621501 26.5125 0.81189C26.9418 1.00228 27.2951 1.28403 27.5724 1.65714L30.595 5.31797C30.8339 5.59525 31.0128 5.90511 31.1316 6.24756C31.2505 6.58872 31.3099 6.9465 31.3099 7.32089V27.8005C31.3099 28.6579 30.9591 29.4373 30.2576 30.1388C29.5561 30.8403 28.7767 31.1911 27.9193 31.1911L4.03572 31.193ZM3.28822 5.90831H28.6266L26.0774 2.84547C25.9534 2.72281 25.8116 2.62506 25.6519 2.55222C25.4922 2.47939 25.3261 2.44297 25.1536 2.44297H6.76122C6.59 2.44297 6.42389 2.48003 6.26289 2.55414C6.10189 2.62825 5.96133 2.72664 5.84122 2.84931L3.28822 5.90831Z" fill="black"/>
</svg>
