<svg width="34" height="34" viewBox="0 0 34 34" fill="none" xmlns="http://www.w3.org/2000/svg">
<path d="M29.75 17V6.375C29.75 5.81141 29.5261 5.27091 29.1276 4.8724C28.7291 4.47388 28.1886 4.25 27.625 4.25H6.375C5.81141 4.25 5.27091 4.47388 4.8724 4.8724C4.47388 5.27091 4.25 5.81141 4.25 6.375V27.625C4.25 28.1886 4.47388 28.7291 4.8724 29.1276C5.27091 29.5261 5.81141 29.75 6.375 29.75H17" stroke="black" stroke-width="2" stroke-linecap="round" stroke-linejoin="round"/>
<path d="M22.6667 26.9167C25.0139 26.9167 26.9167 25.0139 26.9167 22.6667C26.9167 20.3195 25.0139 18.4167 22.6667 18.4167C20.3195 18.4167 18.4167 20.3195 18.4167 22.6667C18.4167 25.0139 20.3195 26.9167 22.6667 26.9167Z" stroke="black" stroke-width="2"/>
<path d="M26.2083 25.5L29.75 28.3333M9.91666 11.3333H24.0833M9.91666 17H15.5833" stroke="black" stroke-width="2" stroke-linecap="round" stroke-linejoin="round"/>
</svg>
