<svg width="56" height="56" viewBox="0 0 56 56" fill="none" xmlns="http://www.w3.org/2000/svg">
<path d="M14 46.6667C12.7167 46.6667 11.6185 46.2101 10.7054 45.297C9.79226 44.3839 9.33493 43.2849 9.33337 42V37.3333C9.33337 36.6722 9.55737 36.1184 10.0054 35.672C10.4534 35.2255 11.0072 35.0015 11.6667 35C12.3263 34.9984 12.8808 35.2224 13.3304 35.672C13.7799 36.1215 14.0032 36.6753 14 37.3333V42H42V37.3333C42 36.6722 42.224 36.1184 42.672 35.672C43.12 35.2255 43.6738 35.0015 44.3334 35C44.9929 34.9984 45.5475 35.2224 45.997 35.672C46.4466 36.1215 46.6698 36.6753 46.6667 37.3333V42C46.6667 43.2833 46.2102 44.3823 45.297 45.297C44.3839 46.2117 43.2849 46.6682 42 46.6667H14ZM25.6667 18.3167L21.2917 22.6917C20.825 23.1583 20.2713 23.3823 19.6304 23.3637C18.9895 23.345 18.4349 23.1015 17.9667 22.6333C17.5389 22.1667 17.3149 21.6222 17.2947 21C17.2745 20.3778 17.4985 19.8333 17.9667 19.3667L26.3667 10.9667C26.6 10.7333 26.8528 10.5684 27.125 10.472C27.3973 10.3755 27.6889 10.3265 28 10.325C28.3112 10.3234 28.6028 10.3724 28.875 10.472C29.1473 10.5715 29.4 10.7364 29.6334 10.9667L38.0334 19.3667C38.5 19.8333 38.724 20.3778 38.7054 21C38.6867 21.6222 38.4627 22.1667 38.0334 22.6333C37.5667 23.1 37.0129 23.3434 36.372 23.3637C35.7312 23.3839 35.1766 23.1599 34.7084 22.6917L30.3334 18.3167V35C30.3334 35.6611 30.1094 36.2157 29.6614 36.6637C29.2134 37.1117 28.6596 37.3349 28 37.3333C27.3405 37.3318 26.7867 37.1078 26.3387 36.6613C25.8907 36.2149 25.6667 35.6611 25.6667 35V18.3167Z" fill="black"/>
</svg>
