<svg width="25" height="25" viewBox="0 0 25 25" fill="none" xmlns="http://www.w3.org/2000/svg">
<path d="M14.5 14.252V16.342C13.5949 16.022 12.6263 15.9239 11.6754 16.0558C10.7245 16.1877 9.8192 16.5459 9.03543 17.1002C8.25166 17.6545 7.61234 18.3888 7.17116 19.2414C6.72998 20.094 6.49982 21.04 6.5 22H4.5C4.49954 20.7788 4.77866 19.5737 5.31597 18.4771C5.85328 17.3804 6.63452 16.4214 7.59982 15.6733C8.56512 14.9253 9.68886 14.4082 10.8849 14.1617C12.081 13.9152 13.3176 13.9467 14.5 14.252ZM12.5 13C9.185 13 6.5 10.315 6.5 7C6.5 3.685 9.185 1 12.5 1C15.815 1 18.5 3.685 18.5 7C18.5 10.315 15.815 13 12.5 13ZM12.5 11C14.71 11 16.5 9.21 16.5 7C16.5 4.79 14.71 3 12.5 3C10.29 3 8.5 4.79 8.5 7C8.5 9.21 10.29 11 12.5 11ZM18.5 17V14H20.5V17H23.5V19H20.5V22H18.5V19H15.5V17H18.5Z" fill="black"/>
</svg>
