<svg width="25" height="25" viewBox="0 0 25 25" fill="none" xmlns="http://www.w3.org/2000/svg">
<path d="M19.3362 3.27197H5.33621C4.23621 3.27197 3.33621 4.17197 3.33621 5.27197V19.272C3.33621 20.372 4.23621 21.272 5.33621 21.272H19.3362C20.4362 21.272 21.3362 20.372 21.3362 19.272V5.27197C21.3362 4.17197 20.4362 3.27197 19.3362 3.27197ZM11.0462 16.562C10.9537 16.6547 10.8438 16.7282 10.7228 16.7784C10.6019 16.8286 10.4722 16.8544 10.3412 16.8544C10.2102 16.8544 10.0806 16.8286 9.95959 16.7784C9.83861 16.7282 9.72873 16.6547 9.63621 16.562L6.04621 12.972C5.95363 12.8794 5.88019 12.7695 5.83009 12.6485C5.77998 12.5276 5.75419 12.3979 5.75419 12.267C5.75419 12.136 5.77998 12.0064 5.83009 11.8854C5.88019 11.7645 5.95363 11.6546 6.04621 11.562C6.13879 11.4694 6.2487 11.396 6.36967 11.3458C6.49063 11.2957 6.62028 11.27 6.75121 11.27C6.88214 11.27 7.01179 11.2957 7.13276 11.3458C7.25372 11.396 7.36363 11.4694 7.45621 11.562L10.3362 14.442L17.2162 7.56197C17.4032 7.375 17.6568 7.26995 17.9212 7.26995C18.1856 7.26995 18.4392 7.375 18.6262 7.56197C18.8132 7.74895 18.9182 8.00255 18.9182 8.26697C18.9182 8.5314 18.8132 8.785 18.6262 8.97197L11.0462 16.562Z" fill="#39AA57"/>
</svg>
