<svg width="336" height="101" viewBox="0 0 336 101" fill="none" xmlns="http://www.w3.org/2000/svg">
<path d="M176.49 9.22607H126.508C124.299 9.22607 122.18 10.1037 120.618 11.6659C119.056 13.2281 118.178 15.347 118.178 17.5563V84.1977C118.178 86.4071 119.056 88.5259 120.618 90.0881C122.18 91.6503 124.299 92.5279 126.508 92.5279H176.49C178.699 92.5279 180.818 91.6503 182.38 90.0881C183.942 88.5259 184.82 86.4071 184.82 84.1977V17.5563C184.82 15.347 183.942 13.2281 182.38 11.6659C180.818 10.1037 178.699 9.22607 176.49 9.22607ZM155.664 88.3628H147.334V84.1977H155.664V88.3628ZM176.49 80.0327H126.508V21.7214H176.49V80.0327Z" fill="black"/>
<path d="M134.961 47.6515L132.876 53.5304H131.083L128.998 47.6515H130.522L131.98 52.09L133.445 47.6515H134.961ZM136.28 48.3717C136.028 48.3717 135.822 48.2991 135.66 48.1539C135.504 48.0032 135.425 47.8189 135.425 47.6012C135.425 47.3779 135.504 47.1936 135.66 47.0485C135.822 46.8977 136.028 46.8224 136.28 46.8224C136.525 46.8224 136.726 46.8977 136.883 47.0485C137.044 47.1936 137.125 47.3779 137.125 47.6012C137.125 47.8189 137.044 48.0032 136.883 48.1539C136.726 48.2991 136.525 48.3717 136.28 48.3717ZM136.991 48.8574V53.5304H135.559V48.8574H136.991ZM137.745 51.1855C137.745 50.7054 137.834 50.2839 138.012 49.921C138.197 49.5581 138.445 49.2789 138.758 49.0835C139.07 48.8881 139.419 48.7904 139.805 48.7904C140.112 48.7904 140.391 48.8546 140.642 48.983C140.899 49.1114 141.1 49.2845 141.245 49.5022V47.3332H142.677V53.5304H141.245V52.8604C141.111 53.0838 140.918 53.2624 140.667 53.3964C140.422 53.5304 140.134 53.5974 139.805 53.5974C139.419 53.5974 139.07 53.4997 138.758 53.3043C138.445 53.1033 138.197 52.8213 138.012 52.4585C137.834 52.09 137.745 51.6657 137.745 51.1855ZM141.245 51.1939C141.245 50.8366 141.145 50.5546 140.944 50.3481C140.748 50.1415 140.508 50.0382 140.223 50.0382C139.939 50.0382 139.696 50.1415 139.495 50.3481C139.299 50.5491 139.202 50.8282 139.202 51.1855C139.202 51.5428 139.299 51.8276 139.495 52.0397C139.696 52.2463 139.939 52.3496 140.223 52.3496C140.508 52.3496 140.748 52.2463 140.944 52.0397C141.145 51.8332 141.245 51.5512 141.245 51.1939ZM148.118 51.1185C148.118 51.2525 148.11 51.3921 148.093 51.5373H144.852C144.874 51.8276 144.967 52.0509 145.128 52.2072C145.296 52.358 145.5 52.4333 145.74 52.4333C146.097 52.4333 146.346 52.2826 146.485 51.9811H148.009C147.931 52.2882 147.789 52.5645 147.582 52.8102C147.381 53.0558 147.127 53.2485 146.82 53.388C146.513 53.5276 146.17 53.5974 145.79 53.5974C145.332 53.5974 144.925 53.4997 144.567 53.3043C144.21 53.1089 143.931 52.8297 143.73 52.4668C143.529 52.1039 143.428 51.6796 143.428 51.1939C143.428 50.7082 143.526 50.2839 143.722 49.921C143.923 49.5581 144.202 49.2789 144.559 49.0835C144.916 48.8881 145.327 48.7904 145.79 48.7904C146.242 48.7904 146.644 48.8853 146.996 49.0751C147.348 49.265 147.621 49.5357 147.817 49.8875C148.018 50.2392 148.118 50.6495 148.118 51.1185ZM146.653 50.7417C146.653 50.496 146.569 50.3006 146.401 50.1554C146.234 50.0103 146.025 49.9377 145.773 49.9377C145.533 49.9377 145.329 50.0075 145.162 50.1471C145 50.2866 144.9 50.4848 144.86 50.7417H146.653ZM151.001 53.5974C150.543 53.5974 150.13 53.4997 149.761 53.3043C149.398 53.1089 149.111 52.8297 148.899 52.4668C148.692 52.1039 148.589 51.6796 148.589 51.1939C148.589 50.7138 148.695 50.2922 148.907 49.9293C149.119 49.5609 149.41 49.2789 149.778 49.0835C150.147 48.8881 150.56 48.7904 151.018 48.7904C151.475 48.7904 151.888 48.8881 152.257 49.0835C152.625 49.2789 152.916 49.5609 153.128 49.9293C153.34 50.2922 153.446 50.7138 153.446 51.1939C153.446 51.674 153.337 52.0983 153.12 52.4668C152.907 52.8297 152.614 53.1089 152.24 53.3043C151.872 53.4997 151.459 53.5974 151.001 53.5974ZM151.001 52.358C151.274 52.358 151.506 52.2575 151.696 52.0565C151.891 51.8555 151.989 51.568 151.989 51.1939C151.989 50.8198 151.894 50.5323 151.704 50.3313C151.52 50.1303 151.291 50.0298 151.018 50.0298C150.738 50.0298 150.507 50.1303 150.322 50.3313C150.138 50.5267 150.046 50.8142 150.046 51.1939C150.046 51.568 150.135 51.8555 150.314 52.0565C150.498 52.2575 150.727 52.358 151.001 52.358ZM153.921 51.1855C153.921 50.7054 154.01 50.2839 154.189 49.921C154.373 49.5581 154.622 49.2789 154.934 49.0835C155.247 48.8881 155.596 48.7904 155.981 48.7904C156.288 48.7904 156.568 48.8546 156.819 48.983C157.076 49.1114 157.277 49.2845 157.422 49.5022V47.3332H158.854V53.5304H157.422V52.8604C157.288 53.0838 157.095 53.2624 156.844 53.3964C156.598 53.5304 156.311 53.5974 155.981 53.5974C155.596 53.5974 155.247 53.4997 154.934 53.3043C154.622 53.1033 154.373 52.8213 154.189 52.4585C154.01 52.09 153.921 51.6657 153.921 51.1855ZM157.422 51.1939C157.422 50.8366 157.321 50.5546 157.12 50.3481C156.925 50.1415 156.685 50.0382 156.4 50.0382C156.115 50.0382 155.872 50.1415 155.671 50.3481C155.476 50.5491 155.378 50.8282 155.378 51.1855C155.378 51.5428 155.476 51.8276 155.671 52.0397C155.872 52.2463 156.115 52.3496 156.4 52.3496C156.685 52.3496 156.925 52.2463 157.12 52.0397C157.321 51.8332 157.422 51.5512 157.422 51.1939ZM164.295 51.1185C164.295 51.2525 164.286 51.3921 164.27 51.5373H161.029C161.051 51.8276 161.143 52.0509 161.305 52.2072C161.473 52.358 161.676 52.4333 161.916 52.4333C162.274 52.4333 162.522 52.2826 162.662 51.9811H164.186C164.108 52.2882 163.965 52.5645 163.759 52.8102C163.558 53.0558 163.304 53.2485 162.997 53.388C162.69 53.5276 162.346 53.5974 161.967 53.5974C161.509 53.5974 161.101 53.4997 160.744 53.3043C160.387 53.1089 160.108 52.8297 159.907 52.4668C159.706 52.1039 159.605 51.6796 159.605 51.1939C159.605 50.7082 159.703 50.2839 159.898 49.921C160.099 49.5581 160.378 49.2789 160.736 49.0835C161.093 48.8881 161.503 48.7904 161.967 48.7904C162.419 48.7904 162.821 48.8853 163.173 49.0751C163.524 49.265 163.798 49.5357 163.993 49.8875C164.194 50.2392 164.295 50.6495 164.295 51.1185ZM162.829 50.7417C162.829 50.496 162.746 50.3006 162.578 50.1554C162.411 50.0103 162.201 49.9377 161.95 49.9377C161.71 49.9377 161.506 50.0075 161.339 50.1471C161.177 50.2866 161.076 50.4848 161.037 50.7417H162.829ZM166.951 53.5974C166.544 53.5974 166.181 53.5276 165.863 53.388C165.544 53.2485 165.293 53.0586 165.109 52.8186C164.925 52.5729 164.821 52.2993 164.799 51.9979H166.214C166.231 52.1598 166.306 52.291 166.44 52.3915C166.574 52.4919 166.739 52.5422 166.935 52.5422C167.113 52.5422 167.25 52.5087 167.345 52.4417C167.445 52.3691 167.496 52.277 167.496 52.1653C167.496 52.0313 167.426 51.9336 167.286 51.8722C167.147 51.8052 166.921 51.7327 166.608 51.6545C166.273 51.5763 165.994 51.4954 165.77 51.4116C165.547 51.3223 165.355 51.1855 165.193 51.0013C165.031 50.8115 164.95 50.5574 164.95 50.2392C164.95 49.9712 165.022 49.7283 165.168 49.5106C165.318 49.2873 165.536 49.1114 165.821 48.983C166.111 48.8546 166.454 48.7904 166.851 48.7904C167.437 48.7904 167.898 48.9356 168.233 49.2259C168.573 49.5162 168.769 49.9014 168.819 50.3816H167.496C167.473 50.2197 167.401 50.0912 167.278 49.9963C167.161 49.9014 167.004 49.854 166.809 49.854C166.641 49.854 166.513 49.8875 166.424 49.9545C166.334 50.0159 166.29 50.1024 166.29 50.2141C166.29 50.3481 166.36 50.4486 166.499 50.5156C166.644 50.5826 166.868 50.6495 167.169 50.7165C167.515 50.8059 167.797 50.8952 168.015 50.9845C168.233 51.0683 168.422 51.2079 168.584 51.4033C168.752 51.5931 168.838 51.8499 168.844 52.1737C168.844 52.4473 168.766 52.6929 168.609 52.9107C168.459 53.1228 168.238 53.2903 167.948 53.4132C167.663 53.536 167.331 53.5974 166.951 53.5974ZM172.576 53.5304L171.152 51.5707V53.5304H169.72V47.3332H171.152V50.7584L172.567 48.8574H174.334L172.392 51.2023L174.351 53.5304H172.576Z" fill="black"/>
<path d="M79.7399 13.3911H21.4286C18.1146 13.3911 14.9364 14.7076 12.5931 17.0509C10.2498 19.3942 8.93329 22.5724 8.93329 25.8864V59.2071C8.93329 62.5211 10.2498 65.6993 12.5931 68.0426C14.9364 70.386 18.1146 71.7024 21.4286 71.7024H46.4191V80.0326H29.7588C28.6541 80.0326 27.5947 80.4714 26.8136 81.2525C26.0325 82.0336 25.5937 83.093 25.5937 84.1977C25.5937 85.3024 26.0325 86.3618 26.8136 87.1429C27.5947 87.924 28.6541 88.3628 29.7588 88.3628H71.4097C72.5143 88.3628 73.5737 87.924 74.3549 87.1429C75.136 86.3618 75.5748 85.3024 75.5748 84.1977C75.5748 83.093 75.136 82.0336 74.3549 81.2525C73.5737 80.4714 72.5143 80.0326 71.4097 80.0326H54.7493V71.7024H79.7399C83.0538 71.7024 86.232 70.386 88.5754 68.0426C90.9187 65.6993 92.2351 62.5211 92.2351 59.2071V25.8864C92.2351 22.5724 90.9187 19.3942 88.5754 17.0509C86.232 14.7076 83.0538 13.3911 79.7399 13.3911ZM83.905 59.2071C83.905 60.3118 83.4661 61.3712 82.685 62.1523C81.9039 62.9334 80.8445 63.3722 79.7399 63.3722H21.4286C20.3239 63.3722 19.2645 62.9334 18.4834 62.1523C17.7023 61.3712 17.2635 60.3118 17.2635 59.2071V25.8864C17.2635 24.7817 17.7023 23.7223 18.4834 22.9412C19.2645 22.1601 20.3239 21.7213 21.4286 21.7213H79.7399C80.8445 21.7213 81.9039 22.1601 82.685 22.9412C83.4661 23.7223 83.905 24.7817 83.905 25.8864V59.2071Z" fill="black"/>
<path d="M30.603 39.5159L28.0745 46.6447H25.9013L23.3728 39.5159H25.2209L26.9879 44.898L28.765 39.5159H30.603ZM32.2021 40.3892C31.8975 40.3892 31.647 40.3012 31.4507 40.1252C31.2611 39.9424 31.1663 39.719 31.1663 39.455C31.1663 39.1842 31.2611 38.9608 31.4507 38.7848C31.647 38.602 31.8975 38.5106 32.2021 38.5106C32.5 38.5106 32.7437 38.602 32.9333 38.7848C33.1296 38.9608 33.2278 39.1842 33.2278 39.455C33.2278 39.719 33.1296 39.9424 32.9333 40.1252C32.7437 40.3012 32.5 40.3892 32.2021 40.3892ZM33.0653 40.9782V46.6447H31.3288V40.9782H33.0653ZM33.9784 43.8013C33.9784 43.2191 34.0867 42.7079 34.3034 42.2679C34.5268 41.8278 34.8281 41.4894 35.2072 41.2524C35.5863 41.0155 36.0094 40.897 36.4765 40.897C36.8489 40.897 37.1874 40.9748 37.492 41.1305C37.8034 41.2863 38.0472 41.4961 38.2232 41.7601V39.13H39.9597V46.6447H38.2232V45.8323C38.0607 46.1031 37.8271 46.3197 37.5225 46.4822C37.2246 46.6447 36.876 46.7259 36.4765 46.7259C36.0094 46.7259 35.5863 46.6074 35.2072 46.3705C34.8281 46.1268 34.5268 45.7849 34.3034 45.3448C34.0867 44.898 33.9784 44.3835 33.9784 43.8013ZM38.2232 43.8114C38.2232 43.3782 38.1013 43.0363 37.8576 42.7858C37.6207 42.5353 37.3295 42.4101 36.9843 42.4101C36.639 42.4101 36.3445 42.5353 36.1008 42.7858C35.8639 43.0295 35.7454 43.368 35.7454 43.8013C35.7454 44.2346 35.8639 44.5798 36.1008 44.8371C36.3445 45.0876 36.639 45.2128 36.9843 45.2128C37.3295 45.2128 37.6207 45.0876 37.8576 44.8371C38.1013 44.5866 38.2232 44.2447 38.2232 43.8114ZM46.5574 43.72C46.5574 43.8825 46.5473 44.0518 46.5269 44.2278H42.597C42.6241 44.5798 42.7358 44.8506 42.9321 45.0402C43.1352 45.223 43.3823 45.3144 43.6734 45.3144C44.1067 45.3144 44.408 45.1316 44.5772 44.766H46.4254C46.3306 45.1383 46.158 45.4735 45.9075 45.7713C45.6638 46.0692 45.3557 46.3028 44.9834 46.472C44.6111 46.6413 44.1947 46.7259 43.7343 46.7259C43.1792 46.7259 42.685 46.6074 42.2517 46.3705C41.8185 46.1335 41.48 45.795 41.2362 45.355C40.9925 44.9149 40.8707 44.4004 40.8707 43.8114C40.8707 43.2225 40.9891 42.7079 41.2261 42.2679C41.4698 41.8278 41.8083 41.4894 42.2416 41.2524C42.6749 41.0155 43.1724 40.897 43.7343 40.897C44.2827 40.897 44.7701 41.0121 45.1967 41.2422C45.6232 41.4724 45.9549 41.8008 46.1918 42.2273C46.4355 42.6538 46.5574 43.1514 46.5574 43.72ZM44.7803 43.2631C44.7803 42.9652 44.6788 42.7282 44.4757 42.5522C44.2726 42.3762 44.0187 42.2882 43.714 42.2882C43.4229 42.2882 43.1758 42.3728 42.9727 42.5421C42.7764 42.7113 42.6545 42.9517 42.6072 43.2631H44.7803ZM50.0528 46.7259C49.4977 46.7259 48.9967 46.6074 48.5499 46.3705C48.1099 46.1335 47.7612 45.795 47.504 45.355C47.2535 44.9149 47.1282 44.4004 47.1282 43.8114C47.1282 43.2292 47.2569 42.7181 47.5141 42.278C47.7714 41.8312 48.1234 41.4894 48.5702 41.2524C49.017 41.0155 49.518 40.897 50.0731 40.897C50.6283 40.897 51.1293 41.0155 51.5761 41.2524C52.0229 41.4894 52.3749 41.8312 52.6322 42.278C52.8894 42.7181 53.0181 43.2292 53.0181 43.8114C53.0181 44.3937 52.886 44.9082 52.622 45.355C52.3648 45.795 52.0093 46.1335 51.5558 46.3705C51.1089 46.6074 50.608 46.7259 50.0528 46.7259ZM50.0528 45.223C50.3846 45.223 50.6655 45.1011 50.8957 44.8574C51.1326 44.6137 51.2511 44.265 51.2511 43.8114C51.2511 43.3579 51.136 43.0092 50.9058 42.7655C50.6824 42.5218 50.4049 42.3999 50.0731 42.3999C49.7346 42.3999 49.4537 42.5218 49.2303 42.7655C49.0069 43.0024 48.8952 43.3511 48.8952 43.8114C48.8952 44.265 49.0035 44.6137 49.2201 44.8574C49.4435 45.1011 49.7211 45.223 50.0528 45.223ZM53.594 43.8013C53.594 43.2191 53.7024 42.7079 53.919 42.2679C54.1424 41.8278 54.4437 41.4894 54.8228 41.2524C55.2019 41.0155 55.625 40.897 56.0921 40.897C56.4645 40.897 56.803 40.9748 57.1076 41.1305C57.419 41.2863 57.6628 41.4961 57.8388 41.7601V39.13H59.5753V46.6447H57.8388V45.8323C57.6763 46.1031 57.4427 46.3197 57.1381 46.4822C56.8402 46.6447 56.4916 46.7259 56.0921 46.7259C55.625 46.7259 55.2019 46.6074 54.8228 46.3705C54.4437 46.1268 54.1424 45.7849 53.919 45.3448C53.7024 44.898 53.594 44.3835 53.594 43.8013ZM57.8388 43.8114C57.8388 43.3782 57.7169 43.0363 57.4732 42.7858C57.2363 42.5353 56.9452 42.4101 56.5999 42.4101C56.2546 42.4101 55.9601 42.5353 55.7164 42.7858C55.4795 43.0295 55.361 43.368 55.361 43.8013C55.361 44.2346 55.4795 44.5798 55.7164 44.8371C55.9601 45.0876 56.2546 45.2128 56.5999 45.2128C56.9452 45.2128 57.2363 45.0876 57.4732 44.8371C57.7169 44.5866 57.8388 44.2447 57.8388 43.8114ZM66.173 43.72C66.173 43.8825 66.1629 44.0518 66.1426 44.2278H62.2126C62.2397 44.5798 62.3514 44.8506 62.5477 45.0402C62.7508 45.223 62.9979 45.3144 63.289 45.3144C63.7223 45.3144 64.0236 45.1316 64.1928 44.766H66.041C65.9462 45.1383 65.7736 45.4735 65.5231 45.7713C65.2794 46.0692 64.9714 46.3028 64.599 46.472C64.2267 46.6413 63.8103 46.7259 63.35 46.7259C62.7948 46.7259 62.3006 46.6074 61.8673 46.3705C61.4341 46.1335 61.0956 45.795 60.8519 45.355C60.6081 44.9149 60.4863 44.4004 60.4863 43.8114C60.4863 43.2225 60.6047 42.7079 60.8417 42.2679C61.0854 41.8278 61.4239 41.4894 61.8572 41.2524C62.2905 41.0155 62.7881 40.897 63.35 40.897C63.8983 40.897 64.3858 41.0121 64.8123 41.2422C65.2388 41.4724 65.5705 41.8008 65.8074 42.2273C66.0512 42.6538 66.173 43.1514 66.173 43.72ZM64.3959 43.2631C64.3959 42.9652 64.2944 42.7282 64.0913 42.5522C63.8882 42.3762 63.6343 42.2882 63.3296 42.2882C63.0385 42.2882 62.7914 42.3728 62.5883 42.5421C62.392 42.7113 62.2702 42.9517 62.2228 43.2631H64.3959ZM69.3943 46.7259C68.9001 46.7259 68.46 46.6413 68.0741 46.472C67.6882 46.3028 67.3836 46.0726 67.1602 45.7815C66.9368 45.4836 66.8115 45.1519 66.7844 44.7863H68.5006C68.5209 44.9826 68.6123 45.1417 68.7748 45.2636C68.9373 45.3854 69.137 45.4464 69.3739 45.4464C69.5906 45.4464 69.7564 45.4058 69.8715 45.3245C69.9934 45.2365 70.0543 45.1248 70.0543 44.9894C70.0543 44.8269 69.9697 44.7085 69.8005 44.634C69.6312 44.5527 69.357 44.4647 68.9779 44.37C68.5717 44.2752 68.2332 44.177 67.9624 44.0755C67.6916 43.9671 67.4581 43.8013 67.2617 43.5779C67.0654 43.3477 66.9672 43.0397 66.9672 42.6538C66.9672 42.3288 67.0552 42.0343 67.2313 41.7703C67.4141 41.4995 67.6781 41.2863 68.0233 41.1305C68.3754 40.9748 68.7917 40.897 69.2724 40.897C69.9832 40.897 70.5418 41.073 70.948 41.425C71.3609 41.7771 71.5979 42.2442 71.6588 42.8264H70.0543C70.0272 42.6301 69.9392 42.4744 69.7903 42.3593C69.6481 42.2442 69.4586 42.1867 69.2216 42.1867C69.0185 42.1867 68.8628 42.2273 68.7545 42.3085C68.6462 42.383 68.592 42.4879 68.592 42.6233C68.592 42.7858 68.6766 42.9077 68.8459 42.9889C69.0219 43.0701 69.2927 43.1514 69.6583 43.2326C70.078 43.3409 70.4199 43.4492 70.6839 43.5576C70.948 43.6591 71.1781 43.8284 71.3745 44.0653C71.5776 44.2955 71.6825 44.6069 71.6893 44.9996C71.6893 45.3313 71.5945 45.6292 71.4049 45.8932C71.2221 46.1504 70.9547 46.3535 70.6027 46.5025C70.2574 46.6514 69.8546 46.7259 69.3943 46.7259ZM76.2145 46.6447L74.4881 44.2684V46.6447H72.7516V39.13H74.4881V43.2834L76.2043 40.9782H78.347L75.9911 43.8216L78.3673 46.6447H76.2145Z" fill="black"/>
<path d="M293.336 9.22607H318.327C321.64 9.22607 324.819 10.5425 327.162 12.8859C329.505 15.2292 330.822 18.4074 330.822 21.7214V80.0327C330.822 83.3466 329.505 86.5248 327.162 88.8681C324.819 91.2115 321.64 92.5279 318.327 92.5279H293.336C290.022 92.5279 286.844 91.2115 284.5 88.8681C282.157 86.5248 280.841 83.3466 280.841 80.0327V21.7214C280.841 18.4074 282.157 15.2292 284.5 12.8859C286.844 10.5425 290.022 9.22607 293.336 9.22607ZM293.336 17.5563C292.231 17.5563 291.172 17.9951 290.391 18.7762C289.61 19.5573 289.171 20.6167 289.171 21.7214V80.0327C289.171 81.1373 289.61 82.1967 290.391 82.9778C291.172 83.7589 292.231 84.1977 293.336 84.1977H318.327C319.431 84.1977 320.491 83.7589 321.272 82.9778C322.053 82.1967 322.492 81.1373 322.492 80.0327V21.7214C322.492 20.6167 322.053 19.5573 321.272 18.7762C320.491 17.9951 319.431 17.5563 318.327 17.5563H293.336ZM305.831 80.0327C304.727 80.0327 303.667 79.5938 302.886 78.8127C302.105 78.0316 301.666 76.9722 301.666 75.8676C301.666 74.7629 302.105 73.7035 302.886 72.9224C303.667 72.1413 304.727 71.7025 305.831 71.7025C306.936 71.7025 307.995 72.1413 308.776 72.9224C309.558 73.7035 309.996 74.7629 309.996 75.8676C309.996 76.9722 309.558 78.0316 308.776 78.8127C307.995 79.5938 306.936 80.0327 305.831 80.0327Z" fill="black"/>
<rect x="201.752" y="39.5303" width="59.9249" height="33.7313" rx="16.8656" fill="#FF0000"/>
<path d="M243.073 51.474L235.21 46.9343V56.0137L243.073 51.474ZM220.356 51.474V52.2603H235.996V51.474V50.6877H220.356V51.474Z" fill="white"/>
<path d="M220.356 60.2174L228.219 55.6777V64.7571L220.356 60.2174ZM243.073 60.2174V61.0037H227.432V60.2174V59.4311H243.073V60.2174Z" fill="white"/>
</svg>
