<?xml version="1.0" encoding="UTF-8"?>
<svg version="1.1" xmlns="http://www.w3.org/2000/svg" width="404" height="328">
<path d="M0 0 C2.78515625 1.9921875 2.78515625 1.9921875 5 5 C6.0180163 6.2538357 7.03768253 7.50633279 8.05859375 8.7578125 C9.1891874 10.21021113 10.31525313 11.66614231 11.4375 13.125 C12.35329834 14.30872192 12.35329834 14.30872192 13.28759766 15.51635742 C18.15481223 21.83599675 22.89753574 28.24266936 27.60717773 34.68017578 C32.00041556 40.67555291 36.48154393 46.59855347 41 52.5 C46.78927323 60.0624824 52.50046955 67.6753241 58.10424805 75.37646484 C60.67997696 78.90579332 63.27813461 82.38651711 66.05859375 85.7578125 C74.34280703 95.83278349 74.34280703 95.83278349 74.296875 102.1484375 C73.01871465 110.12012181 64.08746772 115.26858518 58 119.6875 C57.0615625 120.35910156 56.123125 121.03070313 55.15625 121.72265625 C51.56870679 124.311193 48.03292735 126.9627117 44.5 129.625 C37.72523916 134.72315396 30.90865068 139.76219605 24.07495117 144.78100586 C20.300882 147.55595539 16.53587834 150.34071392 12.80078125 153.16796875 C12.12660156 153.67779297 11.45242187 154.18761719 10.7578125 154.71289062 C9.54579849 155.63163618 8.33579494 156.55304761 7.12890625 157.47851562 C2.43181364 161.03836171 -2.41433694 164.36938598 -7.2746582 167.70043945 C-8.01795631 168.21061867 -8.76125443 168.72079788 -9.52707672 169.24643707 C-11.35099077 170.49820025 -13.17530872 171.74937018 -15 173 C-14.02138504 173.00586624 -13.04277008 173.01173248 -12.03450012 173.01777649 C-2.80887415 173.07500654 6.41651617 173.14776965 15.64190197 173.23571491 C20.38470445 173.28042934 25.12742082 173.31968312 29.87036133 173.34643555 C34.4481647 173.37245781 39.02563688 173.4128526 43.60323524 173.46318626 C45.34907217 173.47986227 47.0949664 173.49137198 48.84087181 173.49761391 C51.28774045 173.50724711 53.73376041 173.53529619 56.18041992 173.56762695 C56.90115189 173.56619186 57.62188385 173.56475677 58.36445618 173.5632782 C63.74827947 173.66379044 66.85809092 175.07966772 70.8125 178.625 C72.68742512 182.37485024 72.77259442 185.90312317 72 190 C70.06658451 193.57052209 67.91644101 195.69451966 64 197 C61.70560021 197.09873255 59.40837897 197.13504247 57.11186218 197.14044189 C56.05468553 197.14489858 56.05468553 197.14489858 54.97615176 197.1494453 C52.60868232 197.15813403 50.24126343 197.15964069 47.8737793 197.16113281 C46.17865897 197.16576086 44.48353969 197.1707855 42.78842163 197.17617798 C38.17883969 197.18930521 33.56927231 197.19574756 28.9596746 197.20018864 C26.08028514 197.20311883 23.20089967 197.20722353 20.32151222 197.21169281 C11.31401039 197.22536856 2.30651766 197.23503485 -6.70099384 197.2388947 C-17.10152423 197.24337586 -27.50192323 197.26092614 -37.90241367 197.2898953 C-45.93987145 197.31150603 -53.97729226 197.32159866 -62.01477879 197.32293582 C-66.81604415 197.32398428 -71.617186 197.32990081 -76.41842079 197.34775543 C-80.93527436 197.36422559 -85.45191145 197.36639676 -89.96878433 197.35761642 C-91.62559399 197.35684548 -93.28241524 197.36119628 -94.93919563 197.37107468 C-97.20335862 197.38378163 -99.46675343 197.37792473 -101.73091125 197.36749268 C-102.99724553 197.36895924 -104.26357981 197.3704258 -105.56828785 197.3719368 C-110.67481241 196.81848001 -113.89942725 195.20477981 -117.3515625 191.42578125 C-118.10179687 190.39839844 -118.85203125 189.37101563 -119.625 188.3125 C-120.04539551 187.7450708 -120.46579102 187.1776416 -120.89892578 186.59301758 C-121.80391616 185.37053606 -122.70400478 184.14441332 -123.59960938 182.91503906 C-125.49855966 180.31821793 -127.43618302 177.75134051 -129.37255859 175.18237305 C-130.89581555 173.15986206 -132.41356143 171.13332964 -133.9296875 169.10546875 C-136.45221321 165.73169071 -138.97822927 162.36055567 -141.50634766 158.9909668 C-142.49852147 157.66844678 -143.49038578 156.3456945 -144.48193359 155.02270508 C-147.07673306 151.56084209 -149.67582838 148.10231498 -152.28125 144.6484375 C-153.08949219 143.57529297 -153.08949219 143.57529297 -153.9140625 142.48046875 C-154.93876685 141.12008539 -155.96472176 139.7606427 -156.9921875 138.40234375 C-165.44168996 127.17524241 -165.44168996 127.17524241 -165.9375 123 C-166.02902344 122.38125 -166.12054688 121.7625 -166.21484375 121.125 C-165.75017451 116.52899875 -163.6465012 113.58510684 -160.28515625 110.54296875 C-159.22167969 109.76566406 -158.15820312 108.98835938 -157.0625 108.1875 C-156.19588745 107.54530518 -156.19588745 107.54530518 -155.31176758 106.89013672 C-154.11997774 106.00796818 -152.92456631 105.13067135 -151.72558594 104.25830078 C-149.19074295 102.40988811 -146.69144808 100.51496629 -144.1875 98.625 C-142.67710846 97.49567965 -141.16669941 96.3663825 -139.65576172 95.23779297 C-137.19315861 93.39683193 -134.73385261 91.55148441 -132.27441406 89.70629883 C-130.91845127 88.68899968 -129.56232998 87.67191177 -128.20605469 86.6550293 C-124.78522846 84.09021987 -121.36578187 81.52361112 -117.94921875 78.953125 C-110.88033086 73.63771307 -103.785865 68.36165088 -96.64428711 63.14428711 C-92.06980962 59.79750322 -87.52921905 56.4077242 -83 53 C-76.06073162 47.78070693 -69.06985838 42.6357405 -62.06152344 37.50976562 C-58.14035109 34.63807806 -54.22606718 31.75703959 -50.3125 28.875 C-49.49620117 28.27389404 -48.67990234 27.67278809 -47.83886719 27.0534668 C-43.521203 23.87034894 -39.21884666 20.66926444 -34.9375 17.4375 C-34.0196875 16.756875 -33.101875 16.07625 -32.15625 15.375 C-29.6251925 13.47044188 -27.13918849 11.5283377 -24.65625 9.5625 C-23.08394418 8.35337193 -21.51102746 7.14503783 -19.9375 5.9375 C-19.21747803 5.35218506 -18.49745605 4.76687012 -17.75561523 4.16381836 C-12.08984262 -0.11728567 -7.05693997 -1.47107777 0 0 Z M-15.875 31.0625 C-17.33705104 32.17342526 -18.79929959 33.28409062 -20.26171875 34.39453125 C-21.03563965 34.98443848 -21.80956055 35.5743457 -22.60693359 36.18212891 C-25.79481599 38.60377472 -29.00132584 41.00006443 -32.20800781 43.39672852 C-39.15873422 48.59197902 -46.08295024 53.81944129 -52.97314453 59.09472656 C-63.18709319 66.91457531 -73.52645146 74.53168212 -84 82 C-82.63733356 86.03805866 -80.8590849 88.54368118 -77.9375 91.625 C-73.90335746 95.98084449 -70.1176233 100.46882419 -66.3828125 105.08203125 C-63.79244152 108.25417407 -61.15317133 111.38043294 -58.5 114.5 C-54.38230876 119.34522114 -50.33593661 124.24216054 -46.32421875 129.17578125 C-43.68928989 132.37755195 -41.00321884 135.53266054 -38.3125 138.6875 C-34.35504049 143.33267834 -30.58399185 148.05990312 -27 153 C-20.12064396 148.88642588 -13.79507729 144.39139169 -7.54199219 139.39892578 C-3.12622059 135.87464015 1.34809135 132.4427976 5.875 129.0625 C6.54305664 128.56331055 7.21111328 128.06412109 7.89941406 127.54980469 C9.25663062 126.53661614 10.61421603 125.52392149 11.97216797 124.51171875 C15.29718376 122.03296872 18.61820376 119.54890255 21.9375 117.0625 C22.90598877 116.33703979 22.90598877 116.33703979 23.89404297 115.59692383 C31.63763248 109.78588488 39.31922582 103.89366336 47 98 C43.38269913 92.37660114 39.53786459 87.09790568 35.3203125 81.91015625 C32.56044153 78.44870192 29.89988822 74.920961 27.25 71.375 C26.73711426 70.68873535 26.22422852 70.0024707 25.69580078 69.29541016 C24.64569781 67.8888532 23.59605831 66.48195012 22.546875 65.07470703 C18.62129722 59.80962496 14.68308407 54.55414758 10.73339844 49.30712891 C9.46861419 47.62371888 8.20662613 45.93820696 6.94628906 44.25146484 C4.76191813 41.32971033 2.5691146 38.41444194 0.375 35.5 C-0.32463867 34.56067627 -1.02427734 33.62135254 -1.74511719 32.65356445 C-2.39899414 31.78820068 -3.05287109 30.92283691 -3.7265625 30.03125 C-4.60175537 28.86432617 -4.60175537 28.86432617 -5.49462891 27.67382812 C-5.99140137 27.12146484 -6.48817383 26.56910156 -7 26 C-10.53969495 26 -13.15305511 28.96985541 -15.875 31.0625 Z M-107.53515625 99.640625 C-108.25461426 100.21151855 -108.97407227 100.78241211 -109.71533203 101.37060547 C-110.48989746 101.99080566 -111.26446289 102.61100586 -112.0625 103.25 C-120.8171011 110.17145633 -129.82118978 116.65616407 -139 123 C-136.02435204 128.54486595 -132.5463736 133.3394216 -128.625 138.25 C-123.44876308 144.81526825 -118.38614649 151.44886117 -113.4375 158.1875 C-112.86660645 158.96448242 -112.29571289 159.74146484 -111.70751953 160.54199219 C-107.0543157 166.89415969 -107.0543157 166.89415969 -106.08215332 168.78852844 C-104.36450674 171.816591 -103.1521537 173.67259397 -99.71098328 174.65046692 C-96.79824836 174.91209301 -93.96322866 174.94395033 -91.0390625 174.89453125 C-89.97513275 174.89885666 -88.911203 174.90318207 -87.81503296 174.90763855 C-85.56738215 174.90801955 -83.31966997 174.89095256 -81.07226562 174.85766602 C-77.642731 174.81273231 -74.21864247 174.8368744 -70.7890625 174.86914062 C-68.60154298 174.86091777 -66.41403412 174.84867989 -64.2265625 174.83203125 C-63.20656158 174.84103958 -62.18656067 174.85004791 -61.13565063 174.85932922 C-54.92207899 174.71667086 -51.5747168 173.72934621 -47.13656616 169.2832489 C-46.76149933 168.85977676 -46.3864325 168.43630463 -46 168 C-47.3713264 165.17792067 -48.78421675 162.86259518 -50.80078125 160.453125 C-51.35918701 159.78128174 -51.91759277 159.10943848 -52.49291992 158.41723633 C-53.39361206 157.34445435 -53.39361206 157.34445435 -54.3125 156.25 C-55.58638148 154.71781694 -56.85980857 153.185256 -58.1328125 151.65234375 C-58.77895508 150.87616699 -59.42509766 150.09999023 -60.09082031 149.30029297 C-62.97787779 145.82179481 -65.83671896 142.32075614 -68.6875 138.8125 C-69.22415283 138.15217773 -69.76080566 137.49185547 -70.3137207 136.81152344 C-74.19950906 132.0168237 -78.02142585 127.17494201 -81.8190918 122.31030273 C-86.03318516 116.92515769 -90.34521518 111.62145798 -94.67382812 106.328125 C-95.19396484 105.69132812 -95.71410156 105.05453125 -96.25 104.3984375 C-96.97703125 103.51043457 -96.97703125 103.51043457 -97.71875 102.60449219 C-98.77353962 101.2835933 -99.77038964 99.91663956 -100.75 98.5390625 C-101.1625 98.03117187 -101.575 97.52328125 -102 97 C-104.6807792 97 -105.45557718 97.9710555 -107.53515625 99.640625 Z " fill="#000000" transform="translate(244,49)"/>
</svg>
